<svg width="48" height="48" viewBox="0 0 48 48" fill="none" xmlns="http://www.w3.org/2000/svg">
<path d="M4 1H44C45.6569 1 47 2.34315 47 4V44C47 45.6569 45.6569 47 44 47H4C2.34315 47 1 45.6569 1 44V4C1 2.34315 2.34315 1 4 1Z" stroke="black" stroke-width="2"/>
<path d="M20 17H16V23H20V17Z" fill="black"/>
<path d="M32 17H28V23H32V17Z" fill="black"/>
<path d="M26 17H22V23H26V17Z" fill="black"/>
<path d="M20 25H16V31H20V25Z" fill="black"/>
<path d="M32 25H28V31H32V25Z" fill="black"/>
<path d="M26 25H22V31H26V25Z" fill="black"/>
</svg>
